<mxfile host="app.diagrams.net" modified="2023-11-27T04:49:14.535Z" agent="Mozilla/5.0 (Windows NT 10.0; Win64; x64; rv:109.0) Gecko/20100101 Firefox/119.0" version="22.1.4" etag="xagpyCoj9KfAVGoRNxtN" type="github">
  <diagram name="Page-1" id="UA9pDn7yf_OZCyPK_xhW">
    <mxGraphModel>
      <root>
        <mxCell id="0" />
        <mxCell id="1" parent="0" />
      </root>
    </mxGraphModel>
  </diagram>
</mxfile>
